<svg width="391" height="286" viewBox="0 0 451 286" fill="none" xmlns="http://www.w3.org/2000/svg">
<g filter="url(#filter0_d)">
<path d="M35 51C35 36.6406 46.6406 25 61 25H390C404.359 25 416 36.6406 416 51V214.645C416 229.004 404.359 240.645 390 240.645H61C46.6406 240.645 35 229.004 35 214.645V51Z" fill="url(#paint0_linear)"/>
</g>
<mask id="mask0" mask-type="alpha" maskUnits="userSpaceOnUse" x="35" y="26" width="381" height="215">
<path d="M35 52.4946C35 38.1352 46.6406 26.4946 61 26.4946H390C404.359 26.4946 416 38.1352 416 52.4946V215C416 229.359 404.359 241 390 241H61C46.6406 241 35 229.359 35 215V52.4946Z" fill="url(#paint1_linear)"/>
</mask>
<g mask="url(#mask0)">
<path d="M186.787 155.223C206.402 175.185 311.163 177.205 289.092 198.772C267.021 220.34 244.459 233.071 224.843 213.109C205.228 193.147 231.2 183.886 253.271 162.319C275.342 140.751 167.171 135.261 186.787 155.223Z" fill="url(#paint2_linear)"/>
</g>
<defs>
<filter id="filter0_d" x="0" y="0" width="451" height="285.645" filterUnits="userSpaceOnUse" color-interpolation-filters="sRGB">
<feFlood flood-opacity="0" result="BackgroundImageFix"/>
<feColorMatrix in="SourceAlpha" type="matrix" values="0 0 0 0 0 0 0 0 0 0 0 0 0 0 0 0 0 0 127 0"/>
<feOffset dy="10"/>
<feGaussianBlur stdDeviation="17.5"/>
<feColorMatrix type="matrix" values="0 0 0 0 0.290196 0 0 0 0 0.501961 0 0 0 0 0.941176 0 0 0 0.2 0"/>
<feBlend mode="normal" in2="BackgroundImageFix" result="effect1_dropShadow"/>
<feBlend mode="normal" in="SourceGraphic" in2="effect1_dropShadow" result="shape"/>
</filter>
<linearGradient id="paint0_linear" x1="35" y1="240.645" x2="365.56" y2="-35.4012" gradientUnits="userSpaceOnUse">
<stop stop-color="#CF4834"/>
<stop offset="1" stop-color="#8F297B"/>
</linearGradient>
<linearGradient id="paint1_linear" x1="35" y1="241" x2="364.119" y2="-35.3031" gradientUnits="userSpaceOnUse">
<stop stop-color="#FC1D1D"/>
<stop offset="1" stop-color="#EB4E7D"/>
</linearGradient>
<linearGradient id="paint2_linear" x1="130.652" y1="216.133" x2="218.4" y2="305.93" gradientUnits="userSpaceOnUse">
<stop stop-color="white" stop-opacity="0.41"/>
<stop offset="1" stop-color="#CB463A"/>
</linearGradient>
</defs>
</svg>
